<svg version="1.1" preserveAspectRatio="none" xmlns="http://www.w3.org/2000/svg" width="500" height="500" viewBox="0 0 500 500"><rect width="100%" height="100%" fill="#FCF2E8" fill-opacity="1"/><svg viewBox="1366.663 937.3343 982.302 100" width="333" height="33.8999615189626" x="83.5px" y="233.05px" xmlns="http://www.w3.org/2000/svg" xmlns:xlink="http://www.w3.org/1999/xlink" preserveAspectRatio="none"><defs></defs><style>.companyName {fill:#FE6232;fill-opacity:1;}.icon3-str {stroke:#ED4545;stroke-opacity:1;}</style><g opacity="1" transform="rotate(0 1366.663 937.3343)">
<svg width="362.7246" height="100" x="1366.663" y="937.3343" version="1.1" preserveAspectRatio="none" viewBox="1.12 -28.32 102.72 28.32">
  <g transform="matrix(1 0 0 1 0 0)" class="companyName"><path id="id-D6z1nYkh4" d="M23.48-28.32Q23.20-24.56 23.20-21.60L23.20-21.60Q23.20-19.76 23.32-18.72L23.32-18.72L22.40-18.72Q21.44-23.36 19.46-25.38Q17.48-27.40 15.04-27.40L15.04-27.40L14.52-27.40Q13.44-27.40 12.94-27.22Q12.44-27.04 12.26-26.54Q12.08-26.04 12.08-24.88L12.08-24.88L12.08-14.64L12.48-14.64Q14.56-14.64 16.04-16.28Q17.52-17.92 17.92-19.92L17.92-19.92L18.84-19.92Q18.72-18.24 18.72-16.16L18.72-16.16L18.72-14.24Q18.72-12.20 18.96-8.56L18.96-8.56L18.04-8.56Q17.68-10.84 16.18-12.34Q14.68-13.84 12.48-13.84L12.48-13.84L12.08-13.84L12.08-4.64Q12.08-2.96 12.42-2.20Q12.76-1.44 13.66-1.18Q14.56-0.92 16.52-0.92L16.52-0.92L16.52 0Q11.12-0.12 8.28-0.12L8.28-0.12Q6.40-0.12 3.04-0.04L3.04-0.04L1.12 0L1.12-0.80Q2.40-0.88 2.98-1.12Q3.56-1.36 3.76-2.04Q3.96-2.72 3.96-4.24L3.96-4.24L3.96-24.08Q3.96-25.60 3.74-26.28Q3.52-26.96 2.96-27.20Q2.40-27.44 1.12-27.52L1.12-27.52L1.12-28.32Q5.76-28.20 15.12-28.20L15.12-28.20Q21-28.20 23.48-28.32L23.48-28.32Z M48.32-6.72Q48.32-2.64 48.60 0L48.60 0Q45.88-0.12 39.44-0.12L39.44-0.12Q30.08-0.12 25.44 0L25.44 0L25.44-0.80Q26.72-0.88 27.30-1.12Q27.88-1.36 28.08-2.04Q28.28-2.72 28.28-4.24L28.28-4.24L28.28-24.08Q28.28-25.60 28.06-26.28Q27.84-26.96 27.28-27.20Q26.72-27.44 25.44-27.52L25.44-27.52L25.44-28.32Q30.08-28.20 39.44-28.20L39.44-28.20Q45.32-28.20 47.80-28.32L47.80-28.32Q47.52-24.56 47.52-21.60L47.52-21.60Q47.52-19.76 47.64-18.72L47.64-18.72L46.72-18.72Q46-23.36 44.04-25.38Q42.08-27.40 39.36-27.40L39.36-27.40L38.84-27.40Q37.76-27.40 37.26-27.22Q36.76-27.04 36.58-26.54Q36.40-26.04 36.40-24.88L36.40-24.88L36.40-14.64L36.80-14.64Q38.88-14.64 40.36-16.28Q41.84-17.92 42.24-19.92L42.24-19.92L43.16-19.92Q43.04-18.24 43.04-16.16L43.04-16.16L43.04-14.24Q43.04-12.20 43.28-8.56L43.28-8.56L42.36-8.56Q42-10.84 40.50-12.34Q39-13.84 36.80-13.84L36.80-13.84L36.40-13.84L36.40-3.44Q36.40-2.28 36.58-1.78Q36.76-1.28 37.26-1.10Q37.76-0.92 38.84-0.92L38.84-0.92L40.16-0.92Q42.48-0.92 44.56-3.18Q46.64-5.44 47.52-10.40L47.52-10.40L48.44-10.40Q48.32-8.96 48.32-6.72L48.32-6.72Z M87.80-27.52Q86.52-27.44 85.94-27.20Q85.36-26.96 85.16-26.28Q84.96-25.60 84.96-24.08L84.96-24.08L84.96-4.24Q84.96-2.72 85.18-2.04Q85.40-1.36 85.96-1.12Q86.52-0.88 87.80-0.80L87.80-0.80L87.80 0Q85.36-0.12 80.72-0.12L80.72-0.12Q75.88-0.12 73.60 0L73.60 0L73.60-0.80Q75.04-0.88 75.70-1.12Q76.36-1.36 76.60-2.04Q76.84-2.72 76.84-4.24L76.84-4.24L76.84-24.68L67.20-0.04L66.56-0.04L55.28-25.72L55.28-7.84Q55.28-4.88 55.52-3.58Q55.76-2.28 56.58-1.68Q57.40-1.08 59.32-0.80L59.32-0.80L59.32 0Q57.68-0.12 54.84-0.12L54.84-0.12Q52.72-0.12 51.52 0L51.52 0L51.52-0.80Q52.76-1.08 53.36-1.66Q53.96-2.24 54.16-3.44Q54.36-4.64 54.36-7.04L54.36-7.04L54.36-24.08Q54.36-25.60 54.14-26.28Q53.92-26.96 53.36-27.20Q52.80-27.44 51.52-27.52L51.52-27.52L51.52-28.32Q52.72-28.20 54.84-28.20L54.84-28.20Q59.64-28.20 63.12-28.32L63.12-28.32L70.68-11.32L77.24-28.20L80.72-28.20Q85.36-28.20 87.80-28.32L87.80-28.32L87.80-27.52Z M103.84-28.32L103.84-27.52Q102.56-27.44 101.98-27.20Q101.40-26.96 101.20-26.28Q101-25.60 101-24.08L101-24.08L101-4.24Q101-2.72 101.22-2.04Q101.44-1.36 102-1.12Q102.56-0.88 103.84-0.80L103.84-0.80L103.84 0Q101.52-0.12 97.16-0.12L97.16-0.12Q92.32-0.12 90.04 0L90.04 0L90.04-0.80Q91.32-0.88 91.90-1.12Q92.48-1.36 92.68-2.04Q92.88-2.72 92.88-4.24L92.88-4.24L92.88-24.08Q92.88-25.60 92.66-26.28Q92.44-26.96 91.88-27.20Q91.32-27.44 90.04-27.52L90.04-27.52L90.04-28.32Q92.32-28.20 97.16-28.20L97.16-28.20Q101.48-28.20 103.84-28.32L103.84-28.32Z"/></g>
</svg>
</g><g opacity="1" transform="rotate(0 1749.3876 937.3343)">
<svg width="599.5774" height="100" x="1749.3876" y="937.3343" version="1.1" preserveAspectRatio="none" viewBox="2.04 -28.2 170.28 28.4">
  <g transform="matrix(1 0 0 1 0 0)" class="companyName"><path id="id--VpF9B9iX6" d="M12.24 0.20Q9.16 0.20 6.38-0.86Q3.60-1.92 2.04-3.60L2.04-3.60L2.96-5.12Q4.44-3.56 6.94-2.58Q9.44-1.60 12.20-1.60L12.20-1.60Q16.20-1.60 18.24-3.12Q20.28-4.64 20.28-7.08L20.28-7.08Q20.28-8.96 19.20-10.08Q18.12-11.20 16.52-11.80Q14.92-12.40 12.20-13.04L12.20-13.04Q9.12-13.80 7.26-14.52Q5.40-15.24 4.10-16.74Q2.80-18.24 2.80-20.76L2.80-20.76Q2.80-22.80 3.88-24.50Q4.96-26.20 7.18-27.20Q9.40-28.20 12.72-28.20L12.72-28.20Q15.04-28.20 17.28-27.52Q19.52-26.84 21.16-25.68L21.16-25.68L20.40-24.04Q18.72-25.20 16.70-25.80Q14.68-26.40 12.72-26.40L12.72-26.40Q8.84-26.40 6.84-24.84Q4.84-23.28 4.84-20.80L4.84-20.80Q4.84-18.92 5.92-17.80Q7-16.68 8.60-16.08Q10.20-15.48 12.96-14.80L12.96-14.80Q16.04-14.04 17.88-13.32Q19.72-12.60 21.02-11.14Q22.32-9.68 22.32-7.20L22.32-7.20Q22.32-5.16 21.22-3.48Q20.12-1.80 17.84-0.80Q15.56 0.20 12.24 0.20L12.24 0.20Z M50.16 0L46.56-7.88L30.32-7.88L26.76 0L24.56 0L37.44-28L39.48-28L52.36 0L50.16 0ZM31.12-9.60L45.80-9.60L38.44-25.76L31.12-9.60Z M85.92 0L83.92 0L83.88-23.96L72.16-3.72L71.16-3.72L59.44-23.88L59.44 0L57.44 0L57.44-28L59.16-28L71.68-6.36L84.20-28L85.88-28L85.92 0Z M106.64 0.20Q101.32 0.20 98.38-2.88Q95.44-5.96 95.44-11.88L95.44-11.88L95.44-28L97.48-28L97.48-11.96Q97.48-6.80 99.84-4.24Q102.20-1.68 106.68-1.68L106.68-1.68Q111.12-1.68 113.48-4.24Q115.84-6.80 115.84-11.96L115.84-11.96L115.84-28L117.88-28L117.88-11.88Q117.88-5.96 114.92-2.88Q111.96 0.20 106.64 0.20L106.64 0.20Z M129.44-1.84L146.72-1.84L146.72 0L127.40 0L127.40-28L146.12-28L146.12-26.16L129.44-26.16L129.44-15.12L144.36-15.12L144.36-13.32L129.44-13.32L129.44-1.84Z M154.16 0L154.16-28L156.20-28L156.20-1.84L172.32-1.84L172.32 0L154.16 0Z"/></g>
</svg>
</g></svg></svg>