<svg version="1.1" preserveAspectRatio="none" xmlns="http://www.w3.org/2000/svg" width="500" height="500" viewBox="0 0 500 500"><rect width="100%" height="100%" fill="#008858" fill-opacity="1"/><svg viewBox="135.5263 487.2 182.5495 136" width="333" height="248.08613554131892" x="83.5px" y="125.9569px" xmlns="http://www.w3.org/2000/svg" xmlns:xlink="http://www.w3.org/1999/xlink" preserveAspectRatio="none"><defs></defs><style>.companyName {fill:#EBE7D9;fill-opacity:1;}.icon1 {fill:#FDEAA0;fill-opacity:1;}.icon3-str {stroke:#3E5C6D;stroke-opacity:1;}.shapeStroke-str {stroke:#EBE7D9;stroke-opacity:1;}</style><g opacity="1" transform="rotate(0 135.5263 621.2)">
<svg width="182.5495" height="2" x="135.5263" y="621.2" version="1.1" preserveAspectRatio="none" viewBox="0 0 182.5495 2">
  <defs><rect x="0" y="0" width="182.5495" height="2" rx="4%" ry="4%" id="id-UPl23ini1675860119867"></rect></defs><use class="icon1 shapeStroke-str" style="stroke-width:0;" xlink:href="#id-UPl23ini1675860119867"></use>
</svg>
</g><g opacity="1" transform="rotate(0 135.5263 487.2)">
<svg width="182.5495" height="120" x="135.5263" y="487.2" version="1.1" preserveAspectRatio="none" viewBox="1.48 -31.6 48.68 32">
  <g transform="matrix(1 0 0 1 0 0)" class="companyName"><path id="id-D6z1nYkh2" d="M17.12-17.68Q18-17.68 18.58-17.14Q19.16-16.60 19.16-15.76L19.16-15.76Q19.16-14.92 18.58-14.38Q18-13.84 17.12-13.84L17.12-13.84L5.64-13.84L5.64-2.08Q5.64-1.20 5.04-0.60Q4.44 0 3.56 0L3.56 0Q2.68 0 2.08-0.60Q1.48-1.20 1.48-2.08L1.48-2.08L1.48-29.16Q1.48-30.08 2.08-30.66Q2.68-31.24 3.56-31.24L3.56-31.24L21.64-31.24Q22.56-31.24 23.12-30.70Q23.68-30.16 23.68-29.28L23.68-29.28Q23.68-28.44 23.12-27.92Q22.56-27.40 21.64-27.40L21.64-27.40L5.64-27.40L5.64-17.68L17.12-17.68Z M39.48-31.60Q42.92-31.60 45.28-30.20Q47.64-28.80 49.28-26.20L49.28-26.20Q49.76-25.44 49.76-24.76L49.76-24.76Q49.76-23.88 48.96-23.32L48.96-23.32Q48.52-23.04 47.92-23.04L47.92-23.04Q47.32-23.04 46.80-23.34Q46.28-23.64 46-24.16L46-24.16Q44.92-25.96 43.30-26.90Q41.68-27.84 39.20-27.84L39.20-27.84Q36.16-27.84 34.28-26.66Q32.40-25.48 32.40-23.24L32.40-23.24Q32.40-21.16 34.08-19.76Q35.76-18.36 40.08-17.92L40.08-17.92Q44.88-17.44 47.52-15.02Q50.16-12.60 50.16-8.64L50.16-8.64Q50.16-5.76 48.60-3.70Q47.04-1.64 44.46-0.62Q41.88 0.40 38.92 0.40L38.92 0.40Q35.04 0.40 31.86-1.36Q28.68-3.12 27.48-5.96L27.48-5.96Q27.28-6.44 27.28-6.76L27.28-6.76Q27.28-7.36 27.72-7.82Q28.16-8.28 28.92-8.44L28.92-8.44Q29.04-8.48 29.32-8.48L29.32-8.48Q29.96-8.48 30.54-8.10Q31.12-7.72 31.40-7.08L31.40-7.08Q32.12-5.52 34.24-4.44Q36.36-3.36 38.92-3.36L38.92-3.36Q41.92-3.36 44-4.74Q46.08-6.12 46.08-8.52L46.08-8.52Q46.08-10.80 44.32-12.42Q42.56-14.04 38.96-14.40L38.96-14.40Q34-14.88 31.16-17.30Q28.32-19.72 28.32-23.36L28.32-23.36Q28.32-25.92 29.78-27.78Q31.24-29.64 33.78-30.62Q36.32-31.60 39.48-31.60L39.48-31.60Z"/></g>
</svg>
</g></svg></svg>