<svg version="1.1" preserveAspectRatio="none" xmlns="http://www.w3.org/2000/svg" width="500" height="500" viewBox="0 0 500 500"><rect width="100%" height="100%" fill="#FCF2E8" fill-opacity="1"/><svg viewBox="1692.6348 1082.0093 188.648 120" width="333" height="211.82307790170054" x="83.5px" y="144.0885px" xmlns="http://www.w3.org/2000/svg" xmlns:xlink="http://www.w3.org/1999/xlink" preserveAspectRatio="none"><defs></defs><style>.companyName {fill:#FE6232;fill-opacity:1;}.icon3-str {stroke:#ED4545;stroke-opacity:1;}</style><g opacity="1" transform="rotate(0 1692.6348 1082.0093)">
<svg width="188.648" height="120" x="1692.6348" y="1082.0093" version="1.1" preserveAspectRatio="none" viewBox="1.12 -28.88 46.28000000000001 29.44">
  <g transform="matrix(1 0 0 1 0 0)" class="companyName"><path id="id-D6z1nYkh2" d="M23.48-28.32Q23.20-24.56 23.20-21.60L23.20-21.60Q23.20-19.76 23.32-18.72L23.32-18.72L22.40-18.72Q21.44-23.36 19.46-25.38Q17.48-27.40 15.04-27.40L15.04-27.40L14.52-27.40Q13.44-27.40 12.94-27.22Q12.44-27.04 12.26-26.54Q12.08-26.04 12.08-24.88L12.08-24.88L12.08-14.64L12.48-14.64Q14.56-14.64 16.04-16.28Q17.52-17.92 17.92-19.92L17.92-19.92L18.84-19.92Q18.72-18.24 18.72-16.16L18.72-16.16L18.72-14.24Q18.72-12.20 18.96-8.56L18.96-8.56L18.04-8.56Q17.68-10.84 16.18-12.34Q14.68-13.84 12.48-13.84L12.48-13.84L12.08-13.84L12.08-4.64Q12.08-2.96 12.42-2.20Q12.76-1.44 13.66-1.18Q14.56-0.92 16.52-0.92L16.52-0.92L16.52 0Q11.12-0.12 8.28-0.12L8.28-0.12Q6.40-0.12 3.04-0.04L3.04-0.04L1.12 0L1.12-0.80Q2.40-0.88 2.98-1.12Q3.56-1.36 3.76-2.04Q3.96-2.72 3.96-4.24L3.96-4.24L3.96-24.08Q3.96-25.60 3.74-26.28Q3.52-26.96 2.96-27.20Q2.40-27.44 1.12-27.52L1.12-27.52L1.12-28.32Q5.76-28.20 15.12-28.20L15.12-28.20Q21-28.20 23.48-28.32L23.48-28.32Z M36.40-28.88Q38.68-28.88 40.10-28.46Q41.52-28.04 42.88-27.28L42.88-27.28Q43.32-27.04 43.66-26.88Q44-26.72 44.24-26.72L44.24-26.72Q44.60-26.72 44.80-27.14Q45-27.56 45.12-28.48L45.12-28.48L46.04-28.48Q45.84-25.60 45.84-18.72L45.84-18.72L44.92-18.72Q44.76-21 43.88-23.08Q43-25.16 41.48-26.48Q39.96-27.80 37.96-27.80L37.96-27.80Q36.12-27.80 35-26.82Q33.88-25.84 33.88-24.08L33.88-24.08Q33.88-22.72 34.48-21.72Q35.08-20.72 36.24-19.78Q37.40-18.84 40.04-17L40.04-17Q40.28-16.88 40.50-16.72Q40.72-16.56 40.92-16.40L40.92-16.40Q43.12-14.88 44.44-13.70Q45.76-12.52 46.58-10.96Q47.40-9.40 47.40-7.36L47.40-7.36Q47.40-4.76 45.94-2.98Q44.48-1.20 42-0.32Q39.52 0.56 36.52 0.56L36.52 0.56Q34.08 0.56 32.46 0.16Q30.84-0.24 29.44-0.92L29.44-0.92Q28.56-1.48 28.08-1.48L28.08-1.48Q27.72-1.48 27.52-1.06Q27.32-0.64 27.20 0.28L27.20 0.28L26.28 0.28Q26.44-2.44 26.44-11.32L26.44-11.32L27.36-11.32Q27.64-6.56 29.36-3.60Q31.08-0.64 34.64-0.64L34.64-0.64Q36.84-0.64 38.14-1.68Q39.44-2.72 39.44-4.56L39.44-4.56Q39.44-6.84 38.02-8.46Q36.60-10.08 33.60-12.08L33.60-12.08Q31.20-13.68 29.76-14.88Q28.32-16.08 27.40-17.66Q26.48-19.24 26.48-21.32L26.48-21.32Q26.48-23.84 27.84-25.54Q29.20-27.24 31.46-28.06Q33.72-28.88 36.40-28.88L36.40-28.88Z"/></g>
</svg>
</g></svg></svg>